<?xml version="1.0" encoding="UTF-8" standalone="no"?>
<!DOCTYPE svg PUBLIC "-//W3C//DTD SVG 1.0//EN"
"http://www.w3.org/TR/2001/REC-SVG-20010904/DTD/svg10.dtd">
<!-- Created with Sodipodi ("http://www.sodipodi.com/") -->
<svg
   xmlns="http://www.w3.org/2000/svg"
   xmlns:xlink="http://www.w3.org/1999/xlink"
   version="1.0"
   x="0"
   y="0"
   width="40"
   height="40"
   id="svg602"
   xml:space="preserve"><defs
   id="defs604"><linearGradient
   id="linearGradient660"><stop
   style="stop-color:#0c000d;stop-opacity:1;"
   offset="0"
   id="stop662" /><stop
   style="stop-color:#ffffff;stop-opacity:0;"
   offset="1"
   id="stop663" /></linearGradient><linearGradient
   id="linearGradient714"><stop
   style="stop-color:#0c610d;stop-opacity:1;"
   offset="0"
   id="stop715" /><stop
   style="stop-color:#307a30;stop-opacity:1;"
   offset="1"
   id="stop716" /></linearGradient><linearGradient
   id="linearGradient710"><stop
   style="stop-color:#6eff3a;stop-opacity:1;"
   offset="0"
   id="stop711" /><stop
   style="stop-color:#35bd3d;stop-opacity:1;"
   offset="1"
   id="stop712" /></linearGradient><linearGradient
   id="linearGradient706"><stop
   style="stop-color:#ffffff;stop-opacity:1;"
   offset="0"
   id="stop707" /><stop
   style="stop-color:#ffffff;stop-opacity:0;"
   offset="1"
   id="stop708" /></linearGradient><linearGradient
   id="linearGradient675"><stop
   style="stop-color:#a29ac5;stop-opacity:1;"
   offset="0"
   id="stop676" /><stop
   style="stop-color:#5e5e99;stop-opacity:1;"
   offset="1"
   id="stop677" /></linearGradient><linearGradient
   id="linearGradient659"><stop
   style="stop-color:#edeaff;stop-opacity:1;"
   offset="0"
   id="stop660" /><stop
   style="stop-color:#9797bd;stop-opacity:1;"
   offset="1"
   id="stop661" /></linearGradient><linearGradient
   id="linearGradient615"><stop
   style="stop-color:#aba8bd;stop-opacity:1;"
   offset="0"
   id="stop616" /><stop
   style="stop-color:#ffffff;stop-opacity:1;"
   offset="1"
   id="stop617" /></linearGradient><radialGradient
   cx="0.77600008"
   cy="0.82812488"
   r="0.57651013"
   fx="0.77600008"
   fy="0.82812488"
   id="radialGradient618"
   xlink:href="#linearGradient615" /><linearGradient
   x1="0.36507928"
   y1="0.68987346"
   x2="0.84656072"
   y2="0.94303805"
   id="linearGradient658"
   xlink:href="#linearGradient659" /><linearGradient
   x1="0.45098045"
   y1="0.386076"
   x2="0.82352948"
   y2="0.64556968"
   id="linearGradient674"
   xlink:href="#linearGradient675" /><radialGradient
   cx="0.47715884"
   cy="1.56241897e-2"
   r="0.93336767"
   fx="0.47715884"
   fy="1.56241897e-2"
   id="radialGradient705"
   xlink:href="#linearGradient706" /><radialGradient
   cx="0.51937997"
   cy="0.875"
   r="0.49147549"
   fx="0.51937997"
   fy="0.875"
   id="radialGradient709"
   xlink:href="#linearGradient710" /><linearGradient
   x1="0.37735853"
   y1="0.74050617"
   x2="0.81761009"
   y2="-7.59494528e-2"
   id="linearGradient713"
   xlink:href="#linearGradient714" /><radialGradient
   cx="0.51937979"
   cy="0.546875"
   r="0.47348177"
   fx="0.51937979"
   fy="0.546875"
   id="radialGradient659"
   xlink:href="#linearGradient660" /></defs><g
   transform="matrix(0.7543,0,0,0.7543,0.654275,0.583227)"
   style="font-size:12;"
   id="g650"><path
   d="M 0.818516 13.53465 L 27.37481 0.620286 L 38.10647 23.72063 L 11.73206 39.27243 L 0.818516 13.53465 z "
   transform="matrix(0.992683,0,0,0.992683,0.369773,0.277376)"
   style="fill:url(#radialGradient618);fill-rule:evenodd;"
   id="path614" /><path
   d="M 11.55017 38.99959 L 19.37155 21.17413 "
   transform="matrix(0.992683,0,0,0.992683,0.369773,0.277376)"
   style="fill:none;fill-rule:evenodd;stroke:#a299c0;stroke-width:0.75;"
   id="path609" /><path
   d="M 37.74268 23.90252 L 23.73696 19.99183 "
   transform="matrix(0.992683,0,0,0.992683,0.369773,0.277376)"
   style="fill:none;fill-rule:evenodd;stroke:#a299c0;stroke-width:0.75;"
   id="path608" /><path
   d="M 27.19292 0.711238 L 23.19129 22.90211 L 0.818516 13.35276 "
   transform="matrix(0.992683,0,0,0.992683,0.369773,0.277376)"
   style="fill:none;fill-rule:evenodd;stroke:url(#linearGradient658);stroke-width:1.25;"
   id="path607" /><path
   d="M 0.818516 13.53465 L 27.46576 0.620288 L 38.01552 23.90252 L 11.55017 39.18148 L 0.818516 13.53465 z "
   transform="matrix(0.992683,0,0,0.992683,0.369773,0.277376)"
   style="fill:none;fill-rule:evenodd;stroke:url(#linearGradient674);stroke-width:1.8762;stroke-linecap:round;stroke-linejoin:round;"
   id="path606" /></g><path
   d="M 7.275697 18.3548 L 15.27896 37.08972 L 37.10606 27.08564 L 28.19333 7.259362 L 7.275697 18.3548 z "
   style="font-size:12;fill:url(#radialGradient659);fill-rule:evenodd;stroke-width:1;"
   id="path658" /><g
   transform="matrix(0.631045,0,0,0.631045,14.80571,13.06199)"
   style="font-size:12;"
   id="g652"><path
   d="M 0.818516 13.53465 L 27.37481 0.620286 L 38.10647 23.72063 L 11.73206 39.27243 L 0.818516 13.53465 z "
   transform="matrix(0.992683,0,0,0.992683,0.369773,0.277376)"
   style="fill:url(#radialGradient618);fill-rule:evenodd;"
   id="path653" /><path
   d="M 11.55017 38.99959 L 19.37155 21.17413 "
   transform="matrix(0.992683,0,0,0.992683,0.369773,0.277376)"
   style="fill:none;fill-rule:evenodd;stroke:#a299c0;stroke-width:0.75;"
   id="path654" /><path
   d="M 37.74268 23.90252 L 23.73696 19.99183 "
   transform="matrix(0.992683,0,0,0.992683,0.369773,0.277376)"
   style="fill:none;fill-rule:evenodd;stroke:#a299c0;stroke-width:0.75;"
   id="path655" /><path
   d="M 27.19292 0.711238 L 23.19129 22.90211 L 0.818516 13.35276 "
   transform="matrix(0.992683,0,0,0.992683,0.369773,0.277376)"
   style="fill:none;fill-rule:evenodd;stroke:url(#linearGradient658);stroke-width:1.25;"
   id="path656" /><path
   d="M 0.818516 13.53465 L 27.46576 0.620288 L 38.01552 23.90252 L 11.55017 39.18148 L 0.818516 13.53465 z "
   transform="matrix(0.992683,0,0,0.992683,0.369773,0.277376)"
   style="fill:none;fill-rule:evenodd;stroke:url(#linearGradient674);stroke-width:1.8762;stroke-linecap:round;stroke-linejoin:round;"
   id="path657" /></g><g
   transform="matrix(0.913514,0,0,0.913514,0.978449,2.68033)"
   style="font-size:12;"
   id="g665"><ellipse
   cx="9.95861053"
   cy="31.3146362"
   rx="8.86725616"
   ry="8.86725616"
   transform="matrix(0.948718,0,0,0.948718,-0.23772,1.282547)"
   style="fill:url(#radialGradient709);fill-rule:evenodd;stroke:url(#linearGradient713);"
   id="path610" /><path
   d="M 9.33377 26.68416 L 9.33377 34.77838 "
   transform="translate(-7.812232e-2,7.8125e-2)"
   style="fill:none;fill-opacity:0.4549;fill-rule:evenodd;stroke:#ffffff;stroke-width:2.225;stroke-linecap:round;stroke-linejoin:round;"
   id="path703" /><path
   d="M 5.24119 31.68622 L 9.33377 35.41501 L 13.5173 31.68622 L 13.5173 31.68622 "
   transform="translate(-7.812232e-2,7.8125e-2)"
   style="fill:none;fill-rule:evenodd;stroke:#ffffff;stroke-width:2.225;stroke-linecap:round;stroke-linejoin:round;"
   id="path702" /><ellipse
   cx="-14.7332878"
   cy="27.6313133"
   rx="5.45677233"
   ry="3.54690266"
   transform="matrix(1.065382,0,0,1.162882,24.94917,-4.76965)"
   style="fill:url(#radialGradient705);fill-rule:evenodd;"
   id="path704" /></g></svg>
